<?xml version="1.0" encoding="UTF-8" standalone="no"?>
<!-- Created with Inkscape (http://www.inkscape.org/) -->

<svg
   xmlns:dc="http://purl.org/dc/elements/1.1/"
   xmlns:cc="http://creativecommons.org/ns#"
   xmlns:rdf="http://www.w3.org/1999/02/22-rdf-syntax-ns#"
   xmlns:svg="http://www.w3.org/2000/svg"
   xmlns="http://www.w3.org/2000/svg"
   xmlns:xlink="http://www.w3.org/1999/xlink"
   version="1.0"
   width="812.1452"
   height="697.56927"
   id="svg2">
  <defs
     id="defs4">
    <linearGradient
       id="linearGradient5624">
      <stop
         id="stop5626"
         style="stop-color:#000000;stop-opacity:1"
         offset="0" />
      <stop
         id="stop5628"
         style="stop-color:#000000;stop-opacity:0"
         offset="1" />
    </linearGradient>
    <linearGradient
       x1="-728.57141"
       y1="-711.97699"
       x2="-542.85712"
       y2="-179.11981"
       id="linearGradient5630"
       xlink:href="#linearGradient5624"
       gradientUnits="userSpaceOnUse" />
    <linearGradient
       x1="-728.57141"
       y1="-711.97699"
       x2="-542.85712"
       y2="-179.11981"
       id="linearGradient6525"
       xlink:href="#linearGradient5624"
       gradientUnits="userSpaceOnUse" />
    <linearGradient
       x1="-728.57141"
       y1="-711.97699"
       x2="-542.85712"
       y2="-179.11981"
       id="linearGradient2999"
       xlink:href="#linearGradient5624"
       gradientUnits="userSpaceOnUse"
       gradientTransform="matrix(0.76081657,0,0,0.76081657,1022.0878,663.30667)" />
  </defs>
  <metadata
     id="metadata7">
    <rdf:RDF>
      <cc:Work
         rdf:about="">
        <dc:format>image/svg+xml</dc:format>
        <dc:type
           rdf:resource="http://purl.org/dc/dcmitype/StillImage" />
        <dc:title></dc:title>
      </cc:Work>
    </rdf:RDF>
  </metadata>
  <g
     transform="translate(-110.94481,-31.247322)"
     id="layer1">
    <path
       d="m 741.67259,683.81191 -4.89097,-2.7172 -172.2706,-230.96217 -30.9761,-61.40877 -1.08688,-25.54169 -1.08689,-17.39009 -7.06471,-23.36794 22.28104,-13.58601 113.03561,205.96391 67.93005,125.53473 19.02041,32.60643 1.63033,8.69505 -2.17376,2.7172 -4.34753,-0.54345 z"
       id="path4729"
       style="opacity:0.53846154;fill:url(#linearGradient2999);fill-opacity:1;fill-rule:evenodd;stroke:#000000;stroke-width:0;stroke-linecap:butt;stroke-linejoin:miter;stroke-miterlimit:4;stroke-opacity:1;stroke-dasharray:none" />
    <path
       d="m 741.67259,683.81191 -4.89097,-2.7172 -172.2706,-230.96217 -30.9761,-61.40877 -1.08688,-25.54169 -1.08689,-17.39009 -7.06471,-23.36794 22.28104,-13.58601 113.03561,205.96391 67.93005,125.53473 19.02041,32.60643 1.63033,8.69505 -2.17376,2.7172 -4.34753,-0.54345 z"
       id="path2949"
       style="fill:#cccccc;fill-rule:evenodd;stroke:#000000;stroke-width:0;stroke-linecap:butt;stroke-linejoin:miter;stroke-miterlimit:4;stroke-opacity:1;stroke-dasharray:none" />
    <path
       d="m 462.88766,419.69988 133.1429,39.67115 272.26365,80.97262 3.80407,1.08688 1.63033,-2.7172 -3.26064,-9.23849 -7.06473,-6.52129 -135.31666,-69.56036 -65.75628,-31.51955 -72.27758,-29.34578 -22.8245,-5.97784 -12.49912,0.54343 -33.14987,8.69505 -27.17202,2.7172 -35.86707,-7.06472 4.34753,28.2589 z"
       id="path3838"
       style="fill:#e6e6e6;fill-rule:evenodd;stroke:none" />
    <path
       d="m 467.20139,420.92117 340.07929,101.44739 63.02036,17.67643 1.92134,1.15282 1.15282,-1.92135 -0.76855,-2.30563 -408.86369,-121.42945 3.45843,5.37979 z"
       id="path3842"
       style="fill:#b3b3b3;fill-rule:evenodd;stroke:#000000;stroke-width:0;stroke-linecap:butt;stroke-linejoin:miter;stroke-miterlimit:4;stroke-opacity:1;stroke-dasharray:none" />
    <path
       d="m 739.70011,685.36714 c -2.39132,-1.04196 -6.90676,-6.30259 -17.38785,-20.25729 -11.40084,-15.17931 -16.0422,-21.39902 -21.01786,-28.16519 -2.71992,-3.69865 -8.91251,-11.9667 -13.76127,-18.37344 -4.84876,-6.40673 -10.48923,-14.04518 -12.53438,-16.97432 -2.04523,-2.92915 -6.14725,-8.40703 -9.11557,-12.17307 -2.9684,-3.76604 -7.92284,-10.27102 -11.00985,-14.45552 -15.63235,-21.18976 -20.99177,-28.41624 -23.13134,-31.1897 -6.90281,-8.94794 -14.13741,-18.97588 -14.13741,-19.59603 0,-0.3889 -1.4855,-2.47355 -3.30104,-4.63253 -1.81561,-2.15899 -4.37264,-5.46608 -5.68238,-7.3491 -1.30975,-1.88302 -4.78721,-6.50497 -7.72769,-10.27101 -2.9404,-3.76605 -11.32019,-14.72181 -18.6216,-24.34614 -7.3014,-9.62433 -14.92044,-19.52596 -16.93128,-22.00363 -4.04085,-4.97899 -3.09546,-4.56428 -25.71974,-11.28232 -5.02139,-1.49104 -18.20254,-5.45758 -29.29144,-8.81452 -30.16608,-9.13219 -41.26507,-12.29792 -43.1162,-12.29792 -0.96196,0 -1.8606,0.60232 -2.12053,1.4213 -0.24811,0.7817 -1.14552,2.04973 -1.99426,2.81782 -1.84363,1.66847 -7.02662,1.64438 -19.59334,-0.0911 -12.92571,-1.78503 -33.8699,-3.34361 -45.01572,-3.34989 -13.01833,-0.008 -25.12201,1.9403 -37.90487,6.09934 -5.30541,1.72616 -14.26813,4.50612 -19.91719,6.17769 -9.24095,2.73444 -14.41253,4.13639 -29.29144,7.94057 -5.9101,1.51106 -23.42721,0.81769 -34.08998,-1.34937 -8.03239,-1.63249 -20.5404,-6.73482 -28.78004,-11.74015 -7.98013,-4.84766 -14.9165,-12.42881 -19.43408,-21.24051 -4.0165,-7.83427 -5.487,-13.00649 -7.4232,-26.10942 -1.10798,-7.4977 -2.04842,-9.25376 -6.06957,-11.33318 -2.96681,-1.53417 -8.17254,-0.97519 -13.41594,1.44058 -3.95715,1.82314 -18.19675,11.54405 -23.29003,15.89941 -3.03208,2.59276 -9.20497,4.6745 -12.94005,4.36391 -2.27978,-0.18958 -3.22327,-0.76825 -4.6037,-2.82361 -2.34172,-3.48648 -2.40106,-9.99726 -0.12561,-13.77239 5.71259,-9.47757 16.41386,-20.3468 30.72398,-31.20621 4.79353,-3.63761 13.58742,-8.35625 15.57323,-8.35625 0.42385,0 4.28302,-1.35664 8.57585,-3.01476 4.29291,-1.65812 12.76954,-4.93201 18.83705,-7.27532 6.06752,-2.34333 13.08605,-5.38373 15.59674,-6.75647 9.14015,-4.99741 22.2476,-8.94106 32.87369,-9.89075 5.46107,-0.48807 11.74572,1.13184 20.3835,5.25397 2.92914,1.39785 12.17306,5.68598 20.54204,9.52919 15.22897,6.99344 25.79093,12.02728 47.17064,22.48151 6.27673,3.06919 14.15119,6.59619 17.49878,7.83778 3.34759,1.24158 10.70849,4.02582 16.35755,6.18718 5.64907,2.16138 13.69471,5.12383 17.87919,6.58326 9.88367,3.4471 15.18883,5.54739 28.15023,11.14455 5.85829,2.5298 12.70273,5.30922 15.20987,6.17649 3.56486,1.23315 4.95188,2.185 6.36347,4.36695 1.60074,2.47434 2.40173,2.92485 7.07773,3.98083 11.97433,2.70414 17.73148,2.95984 28.79059,1.27871 5.64906,-0.85873 11.98284,-1.90031 14.07509,-2.31462 2.09225,-0.4143 4.94408,-0.9533 6.33739,-1.19776 l 2.53332,-0.44448 -0.32736,-21.82762 c -0.35562,-23.71279 -0.73661,-26.3048 -5.66958,-38.57165 -1.85359,-4.60934 -2.40375,-5.31674 -4.46246,-5.73779 -3.27818,-0.67046 -3.74031,-1.04172 -7.36133,-5.91392 -5.71696,-7.69238 -44.20622,-65.31525 -62.48761,-93.55117 -6.32438,-9.76813 -9.75508,-14.41235 -18.10573,-24.51027 -7.08127,-8.56292 -10.95671,-12.13798 -16.9454,-15.63188 -4.84031,-2.82394 -9.18732,-7.31639 -11.50485,-11.88979 -2.31934,-4.57707 -3.5495,-16.76376 -3.63449,-36.00652 -0.10111,-22.87402 1.67159,-30.19719 9.83531,-40.63072 13.56604,-17.337945 31.3153,-25.750674 49.88977,-23.64656 15.94026,1.805723 26.48646,6.030765 37.72951,15.115143 7.38028,5.963281 14.28393,17.657407 17.80241,30.155497 1.63936,5.82329 1.69833,7.05733 1.43543,30.03848 -0.61832,54.0497 -0.45433,62.68594 1.40141,73.79921 3.321,19.88833 10.99361,42.23456 23.01886,67.04179 5.14569,10.61515 6.19324,13.42227 6.53018,17.49877 0.32736,3.96065 1.1561,6.28596 4.49727,12.61854 4.27434,8.10127 4.6912,8.86635 13.59488,24.95196 3.011,5.43983 8.6638,15.71085 12.56169,22.82449 12.29882,22.44548 13.26309,24.08185 14.61795,24.80694 1.13422,0.60702 5.83143,2.36846 21.37947,8.01727 1.58928,0.57742 5.18413,2.20114 7.98857,3.60827 2.80438,1.40713 7.49549,3.42678 10.42464,4.48812 2.92914,1.06134 10.52872,4.18566 16.888,6.94293 6.35921,2.75727 11.77843,5.01322 12.04266,5.01322 0.53813,0 5.80206,2.36098 31.24811,14.01523 9.66525,4.42664 17.79565,8.04845 18.06763,8.04845 0.27192,0 3.49101,1.65857 7.15344,3.68571 3.66241,2.02714 13.84868,7.38203 22.63611,11.89976 8.78744,4.51773 16.31952,8.46277 16.73797,8.76674 0.8235,0.59826 54.55861,27.91341 89.01554,45.24922 l 18.03656,10.33355 5.75782,5.31479 c 2.87045,3.16648 4.23516,13.5708 1.37305,14.66912 -0.60166,0.23087 -4.11389,-0.55096 -7.80499,-1.73738 -3.69102,-1.18643 -12.87363,-3.9055 -20.40571,-6.04237 -7.53208,-2.13687 -20.71324,-5.96003 -29.29144,-8.49591 -8.57821,-2.53589 -19.1916,-5.63806 -23.58531,-6.89373 -4.39372,-1.25568 -13.98001,-4.10797 -21.30286,-6.33843 -7.32287,-2.23045 -23.92769,-7.198 -36.89961,-11.03898 -12.97192,-3.841 -24.95479,-7.4466 -26.62858,-8.01244 -1.67379,-0.56584 -6.12458,-1.93996 -9.89062,-3.05358 -3.76604,-1.11361 -9.4151,-2.81733 -12.55347,-3.78602 -3.13837,-0.9687 -9.47216,-2.86013 -14.0751,-4.20319 -4.60295,-1.34305 -13.41708,-4.00418 -19.58692,-5.91359 -6.16984,-1.90941 -11.40959,-3.28 -11.64384,-3.04574 -0.60356,0.60355 6.05206,13.91336 14.7555,29.5078 8.87584,15.90334 23.78769,42.91556 29.8202,54.01797 2.3873,4.39371 6.65038,12.09699 9.47347,17.11837 2.82308,5.02139 7.71163,13.75177 10.86331,19.40083 3.15176,5.64906 8.01939,14.20825 10.81699,19.02041 2.7976,4.81217 7.42024,13.02899 10.27262,18.2596 9.26249,16.98531 17.24467,31.4311 21.13176,38.24343 3.47663,6.09291 3.76482,6.96712 3.33389,10.11149 -0.72223,5.26895 -1.60988,6.4287 -4.89394,6.3941 -1.55451,-0.0164 -3.86039,-0.48034 -5.12426,-1.03103 z m 7.30049,-5.64197 c 0.29087,-2.1799 0.0634,-3.96516 -0.67841,-5.32571 -0.61384,-1.12564 -1.91803,-3.58727 -2.89818,-5.47029 -0.98016,-1.88302 -4.32912,-7.70328 -7.44216,-12.93389 -6.19693,-10.41229 -15.05991,-26.05262 -24.79037,-43.74695 -3.45175,-6.27674 -6.53177,-11.75462 -6.84453,-12.17307 -0.67911,-0.90866 -3.27258,-5.62285 -10.67297,-19.40082 -14.76182,-27.48326 -18.17126,-33.76832 -24.14391,-44.50777 -2.09452,-3.76604 -7.6459,-13.86588 -12.33656,-22.44409 -15.30922,-27.9975 -18.54589,-33.80181 -21.01649,-37.68948 l -2.43591,-3.83314 c 0,0 -65.03802,-18.63897 -65.76666,-18.39608 -0.57373,0.19124 12.68533,18.42699 23.12815,31.8091 4.07828,5.22627 7.33678,9.57487 17.35727,23.1643 4.31976,5.85828 8.66569,11.67853 9.65772,12.93387 4.14714,5.24814 17.64577,22.93262 21.17026,27.73496 2.09224,2.85087 5.34473,7.15024 7.22775,9.55417 1.88302,2.40391 4.20344,5.53216 5.15652,6.95166 0.95307,1.4195 3.5928,5.05599 5.86604,8.08109 6.54043,8.70362 6.72661,8.96113 11.39901,15.77121 2.44032,3.55682 5.86278,8.17878 7.60543,10.27102 3.51588,4.22112 13.22269,17.00028 16.76322,22.0688 3.71164,5.31356 8.91471,12.40861 12.18159,16.61109 1.67851,2.15921 3.65694,4.78176 4.39645,5.82788 0.73952,1.04612 2.27637,3.13261 3.41508,4.63664 1.13879,1.50402 6.25103,8.35137 11.36044,15.21633 13.29208,17.85893 14.47956,18.96743 20.00156,18.67054 1.64473,-0.0884 1.96124,-0.54586 2.33966,-3.38137 z M 872.00893,539.17453 c 0.27298,-0.71133 -1.0169,-4.56317 -1.68724,-6.44201 -1.46515,-4.10648 -4.34802,-7.70007 -34.36276,-23.02503 -10.25201,-5.23448 -20.00948,-10.2289 -21.68327,-11.0987 -1.6738,-0.86982 -6.46694,-3.2511 -10.65144,-5.29175 -11.58275,-5.64853 -51.62703,-26.09453 -52.54298,-26.82761 -1.67067,-1.33719 -60.43979,-30.34637 -69.18767,-34.15193 -5.02139,-2.18443 -10.84163,-4.76198 -12.93388,-5.72789 -4.1746,-1.9272 -7.6739,-3.38088 -23.58531,-9.79765 -5.85829,-2.36254 -11.67853,-4.77998 -12.93388,-5.3721 -4.69523,-2.2146 -17.10514,-7.2364 -28.15021,-11.3913 -6.27675,-2.36115 -13.98001,-5.26026 -17.11838,-6.44247 -6.06842,-2.2859 -11.63775,-3.95904 -17.96097,-5.39585 -5.02984,-1.14289 -10.01988,-0.27948 -32.25295,5.58057 -10.73133,2.8285 -28.96334,5.86556 -38.11246,6.3487 -7.15802,0.378 -8.93557,0.19476 -15.88054,-1.63707 -4.96622,-1.30991 -8.08543,-1.79764 -8.5467,-1.33637 -1.12324,1.12324 -6.82431,21.52751 -5.42148,22.62263 1.70766,1.33307 19.19958,5.00171 30.90168,8.73115 6.78313,2.16177 14.21599,4.54866 16.51746,5.30419 2.30147,0.75555 6.40987,1.95476 9.12979,2.66491 2.71992,0.71018 10.93674,3.16321 18.2596,5.45118 7.32289,2.28798 15.71089,4.86146 18.64003,5.71884 2.92914,0.85737 6.69519,2.00166 8.36899,2.54286 1.67379,0.54118 5.43983,1.57142 8.36898,2.28941 2.92914,0.718 6.51867,1.83297 7.97678,2.47772 1.4581,0.64476 3.6835,1.43118 4.94531,1.74761 1.26181,0.31644 4.17726,1.13575 6.47873,1.8207 2.30147,0.68496 5.38278,1.51023 6.84735,1.83396 1.46457,0.32373 3.44026,1.00674 4.39036,1.5178 0.95019,0.51106 26.60516,8.58034 39.35659,11.84816 2.09224,0.53617 8.08368,2.26001 13.31429,3.83074 5.23062,1.57073 20.7703,6.5901 22.44409,6.88766 1.67379,0.29756 4.58392,1.16139 6.46694,1.91962 1.88302,0.75823 7.18972,2.47357 11.79266,3.81187 4.60294,1.3383 12.08747,3.58641 16.63236,4.99581 4.54489,1.40939 8.82448,2.56503 9.51021,2.56806 0.68572,0.003 4.32242,1.06123 8.08147,2.35155 3.75911,1.29029 18.10249,5.52316 31.58659,9.68512 7.39217,2.28165 19.57885,5.7971 24.34613,7.02305 1.46457,0.37662 5.09633,1.37653 8.0706,2.22202 2.97425,0.84548 13.13716,3.65867 16.27554,4.54892 7.93363,2.25052 17.99201,5.29207 22.06368,6.67183 5.76873,1.9549 13.0346,4.07335 19.0204,5.54565 3.13837,0.77194 7.0756,1.92573 8.7494,2.564 3.84661,1.46682 3.92947,2.23615 4.47611,0.81144 z M 574.23803,432.50424 c -1.50672,-0.75268 -3.31838,-2.55447 -4.17262,-4.14982 -1.40234,-2.61903 -1.42935,-3.05014 -0.38041,-6.06173 3.31008,-9.50293 15.65312,-8.68386 17.12575,1.13647 0.62441,4.16402 -0.56757,6.56123 -4.43533,8.91953 -3.00203,1.83046 -4.71896,1.86327 -8.13739,0.15555 z m 5.07527,-0.42269 c 2.16445,-0.95841 5.49465,-2.16909 5.90222,-7.99732 0.11585,-1.6566 -1.74251,-4.5114 -3.36986,-5.81615 -1.57301,-1.26119 -6.29533,-1.11097 -8.18696,1.49314 -0.46361,0.63821 -3.95951,4.75939 -2.56672,6.61161 0.99871,1.32814 2.74501,5.79658 8.22132,5.70872 z M 307.56219,415.15953 c 7.85474,-0.85824 13.6454,-2.94673 27.47119,-9.90797 11.45036,-5.76525 14.27953,-7.90444 17.94363,-13.56779 3.11242,-4.8107 3.42991,-6.75295 2.03997,-12.47902 -0.73647,-3.03396 -1.98124,-4.67246 -8.28499,-10.9057 -10.63583,-10.51695 -22.8194,-17.13397 -39.69004,-21.55616 -7.00294,-1.83565 -9.12532,-2.07998 -15.21633,-1.75184 -11.9923,0.6461 -22.72118,5.35469 -30.81774,13.52496 -6.50575,6.565 -9.33339,13.27519 -9.34793,22.18295 -0.01,6.21193 2.72464,12.88773 7.57531,18.49221 4.9483,5.71728 14.91133,12.25206 22.08835,14.48778 3.94811,1.22988 16.84585,2.62571 20.16163,2.18195 0.8369,-0.112 3.5715,-0.42761 6.07695,-0.70137 z M 588.69355,390.087 c 0,-0.57924 -9.04375,-17.73132 -15.24228,-28.90814 -3.01694,-5.43984 -6.17631,-11.25743 -7.02097,-12.92798 -0.84466,-1.67056 -2.28929,-4.23831 -3.21034,-5.70612 -0.92104,-1.46782 -3.94438,-7.00203 -6.71846,-12.29824 -2.77402,-5.29623 -6.11028,-11.20977 -7.4138,-13.14123 l -2.37005,-3.51176 -5.83085,3.19565 c -3.20697,1.75761 -7.10793,3.99072 -8.6688,4.96246 -1.56087,0.97175 -3.11864,1.76681 -3.46171,1.76681 -2.10862,0 -2.15308,1.89249 -0.17546,7.46933 4.78576,13.49573 6.12735,22.68061 5.98067,40.94518 -0.0634,7.89407 0.14175,15.15835 0.45587,16.14284 0.53957,1.69107 0.80796,1.76041 4.85612,1.25462 2.35673,-0.29445 5.48939,-0.98714 6.96146,-1.53932 9.18753,-3.44624 19.71442,-3.87572 28.30693,-1.15489 3.0597,0.96886 6.76138,2.19461 8.22595,2.72389 2.8262,1.02136 5.32572,1.36251 5.32572,0.7269 z M 486.72626,199.64802 c 4.62895,-3.42055 8.46852,-14.85406 10.13995,-30.19493 1.07922,-9.90522 0.99132,-12.31396 -1.01057,-27.69488 -1.50612,-11.57185 -7.68608,-21.34241 -17.96172,-28.39761 -13.79656,-9.4727 -28.79297,-7.25241 -38.70624,5.73062 -10.33093,13.52998 -6.20152,31.71734 13.8775,61.12085 5.29541,7.75457 19.64942,20.02697 24.6288,21.05714 2.97299,0.61508 6.97904,-0.10396 9.03228,-1.62119 z"
       id="path2044"
       style="fill:#000000;fill-opacity:1;stroke:#000000;stroke-width:0.76081657;stroke-opacity:1" />
    <path
       d="m 571.98333,429.34595 -2.30963,-3.12479 c 0,0 0.40759,-2.58134 0.54344,-3.12478 0.13586,-0.54344 1.76619,-3.3965 1.76619,-3.3965 l 2.44547,-1.3586 2.0379,-1.22274 1.90204,-0.6793 2.58135,0.6793 2.44549,1.76618 1.90204,3.12478 c 0,0 0.81516,1.63032 0.81516,2.30961 0,0.67931 0,2.58136 0,2.58136 l -1.08689,2.30962 -1.35859,1.76618 -2.17377,0.95101 -1.49446,0.54344 -2.17376,0.13587 c 0,0 -1.22274,-0.13587 -2.58134,-0.95102 -1.3586,-0.81517 -3.53237,-2.30962 -3.26064,-2.30962 z"
       id="path3840"
       style="fill:#f9f9f9;fill-rule:evenodd;stroke:#000000;stroke-width:0.76081657px;stroke-linecap:butt;stroke-linejoin:miter;stroke-opacity:1" />
  </g>
</svg>
